# xmcd
#
# Track frame offsets: 
#        150
#        22947
#        54677
#        64557
#        100107
#        138657
#        154210
#        164632
#        180060
#        188215
#        196080
#        216585
#        228275
#        240135
#        258970
#        271932
#        285570
#        295632
#
# Disc length: 4211 seconds
#
# Revision: 3
# Processed by: cddbd v1.5.2PL0 Copyright (c) Steve Scherf et al.
# Submitted via: ExactAudioCopyFreeDBPlugin 1.0
#
DISCID=f5107112
DTITLE=Sabine Meyer, Wolfgang Meyer, Bamberger Symphoniker, Bamberger 
DTITLE=Symphony Big Band - Hommage to Benny Goodman
DYEAR=1998
DGENRE=Jazz
TTITLE0=Wolfgang Meyer, Bamberger Symphoniker - Clarinet Concerto No 2
TTITLE0=1. Allegro Vivace
TTITLE1=Wolfgang Meyer, Bamberger Symphoniker - Clarinet Concerto No 2
TTITLE1=2. Lento
TTITLE2=Wolfgang Meyer, Bamberger Symphoniker - Clarinet Concerto No 2
TTITLE2=3. Allegro non tropo (The Pre-Goodman Rag)
TTITLE3=Sabine Meyer, Bamberger Symphoniker - Clarinet Concerto - 1. S
TTITLE3=lowly and expressivley - Cadenza
TTITLE4=Sabine Meyer, Bamberger Symphoniker - Clarinet Concerto - 2. R
TTITLE4=ather fast
TTITLE5=Sabine Meyer, Bamberger Symphony Big Band - Ebony Concerto - 1
TTITLE5=Allegro moderato
TTITLE6=Sabine Meyer, Bamberger Symphony Big Band - Ebony Concerto - 2
TTITLE6=Andante
TTITLE7=Sabine Meyer, Bamberger Symphony Big Band - Ebony Concerto - 3
TTITLE7=Moderato - Con moto
TTITLE8=Wolfgang Meyer, Bamberger Symphony Big Band - Prelude, Fuge an
TTITLE8=d Riffs - 1. Prelude for the Brass
TTITLE9=Wolfgang Meyer, Bamberger Symphony Big Band - Prelude, Fuge an
TTITLE9=d Riffs - 2. Fugue for the Saxes
TTITLE10=Wolfgang Meyer, Bamberger Symphony Big Band - Prelude, Fuge a
TTITLE10=nd Riffs - 3. Riffs for Everyone
TTITLE11=Sabine Meyer, Bamberger Symphony Big Band - Paganini Caprice 
TTITLE11=24
TTITLE12=Wolfgang Meyer, Bamberger Symphony Big Band - Clarinade
TTITLE13=Sabine Meyer, Wolfgang Meyer, Bamberger Symphony Big Band - S
TTITLE13=ing, sing, sing
TTITLE14=Sabine Meyer, Wolfgang Meyer, Bamberger Symphony Big Band - R
TTITLE14=achel's Dream
TTITLE15=Wolfgang Meyer, Bamberger Symphony Big Band - Clarinet a la K
TTITLE15=ing
TTITLE16=Sabine Meyer, Wolfgang Meyer, Bamberger Symphony Big Band - T
TTITLE16=iger Rag
TTITLE17=Sabine Meyer, Wolfgang Meyer, Bamberger Symphony Big Band - G
TTITLE17=ood-bye
EXTD=YEAR: 1998
EXTT0=
EXTT1=
EXTT2=
EXTT3=
EXTT4=
EXTT5=
EXTT6=
EXTT7=
EXTT8=
EXTT9=
EXTT10=
EXTT11=
EXTT12=
EXTT13=
EXTT14=
EXTT15=
EXTT16=
EXTT17=
PLAYORDER=
